<?xml version="1.0" encoding="utf-8"?>
<!-- Generator: Adobe Illustrator 22.1.0, SVG Export Plug-In . SVG Version: 6.00 Build 0)  -->
<svg version="1.1" id="Layer_1" xmlns="http://www.w3.org/2000/svg" xmlns:xlink="http://www.w3.org/1999/xlink" x="0px" y="0px"
	 viewBox="0 0 476.7 288.4" style="enable-background:new 0 0 476.7 288.4;" xml:space="preserve">
<style type="text/css">
	.st0{fill:#CC202F;}
	.st1{fill:#D1D3D4;}
	.st2{fill:#FFFFFF;}
</style>
<g>
	<g>
		<path class="st0" d="M464.2,283.1H257.4c-1.4,0-2.7,0.2-3.9,0.7c-3.6,1.4-9.1,2.9-15.9,2.9c-3.4,0-9.2-0.4-15.7-2.9
			c-1.3-0.5-2.7-0.8-4.1-0.8H12.5c-6,0-10.9-4.8-10.9-10.8V40.7c0-6,4.9-10.8,10.9-10.8h451.6c6,0,10.9,4.8,10.9,10.8v231.6
			C475.1,278.3,470.2,283.1,464.2,283.1z"/>
		<path d="M237.5,288.4c-5.6,0-11-1-16.2-3c-1.2-0.5-2.4-0.7-3.6-0.7H12.5c-6.9,0-12.5-5.6-12.5-12.4V40.7c0-6.8,5.6-12.4,12.5-12.4
			h451.6c6.9,0,12.5,5.6,12.5,12.4v231.6c0,6.8-5.6,12.4-12.5,12.4H257.4c-1.2,0-2.3,0.2-3.4,0.6
			C248.7,287.3,243.2,288.4,237.5,288.4z M12.5,31.5c-5.2,0-9.3,4.1-9.3,9.2v231.6c0,5.1,4.2,9.2,9.3,9.2h205.2
			c1.5,0,3.1,0.3,4.7,0.9c9.8,3.7,20.7,3.7,30.4-0.1c1.4-0.6,3-0.8,4.5-0.8h206.8c5.2,0,9.3-4.1,9.3-9.2V40.7c0-5.1-4.2-9.2-9.3-9.2
			H12.5z"/>
	</g>
	<g>
		<rect x="8.2" y="51.5" class="st1" width="460.3" height="223.5"/>
		<path d="M470.1,276.5H6.6V49.9h463.5V276.5z M9.7,273.4h457.2V53.1H9.7V273.4z"/>
	</g>
	<g>
		<path class="st2" d="M238.3,46.8c0,0-118.8-54.3-230.2-22v249.1c0,0,89.6-38.1,230.2,1.1c133.8-40.4,230.2-1.1,230.2-1.1V24.8
			C357.1-7.5,238.3,46.8,238.3,46.8z"/>
		<path d="M238.3,276.6l-0.4-0.1c-72.3-20.2-130.7-19.4-167-15.2c-39.3,4.5-61.9,14-62.1,14.1l-2.2,0.9V23.6l1.1-0.3
			C114.1-7.6,228.6,40.8,238.3,45c9.7-4.3,124.2-52.6,230.6-21.8l1.1,0.3v252.6l-2.2-0.9c-0.2-0.1-24.4-9.8-64.6-14.5
			c-37.1-4.3-95.7-5.1-164.5,15.7L238.3,276.6z M113.9,255.7c33.6,0,75.9,4.1,124.4,17.6c69.2-20.8,128.2-20,165.5-15.6
			c33.7,3.9,56.3,11.4,63.1,13.9V26C357.7-5.1,240.2,47.7,239,48.2l-0.7,0.3l-0.7-0.3C236.5,47.7,119-5.1,9.7,26v245.6
			c6.6-2.5,27.9-9.6,60.6-13.4C82.5,256.7,97.1,255.7,113.9,255.7z"/>
	</g>
	<g>
		<path class="st2" d="M238.3,43.6c0,0-116.7-57.4-226.2-25.1v242.8c0,0,88.8-35.5,226.2,13.7c131.9-48.7,226.2-13.7,226.2-13.7
			V18.5C355.1-13.8,238.3,43.6,238.3,43.6z"/>
		<path d="M238.3,276.6l-0.5-0.2c-70.7-25.3-128.2-27.7-164-25.2c-38.7,2.7-60.9,11.4-61.1,11.5l-2.2,0.9V17.3l1.1-0.3
			c104.4-30.8,216.8,20.2,226.7,24.9c9.9-4.7,122.2-55.7,226.7-24.9l1.1,0.3v246.2l-2.1-0.8c-0.2-0.1-23.9-8.7-63.3-11.3
			c-36.4-2.4-94,0-161.8,25L238.3,276.6z M96.3,247.3c35.6,0,84.5,5.4,142,26c68.2-25.1,126.1-27.4,162.7-25
			c33.1,2.2,55.3,8.6,62,10.8V19.6C355.6-11.4,240.2,44.4,239,45l-0.7,0.3l-0.7-0.3C236.5,44.4,121-11.4,13.7,19.6V259
			c6.5-2.2,27.6-8.7,59.9-10.9C80.4,247.6,88,247.3,96.3,247.3z"/>
	</g>
	<g>
		<path class="st2" d="M238.3,27.8c0,0-114.5-46.6-221.9-15.8v237.7c0,0,89.2-32.4,221.9,25.3c128.7-57.6,221.9-25.3,221.9-25.3V12
			C352.8-18.8,238.3,27.8,238.3,27.8z"/>
		<path d="M238.3,276.7l-0.6-0.3C107.2,219.7,17.9,250.8,17,251.2l-2.1,0.8V10.8l1.1-0.3C118.7-19,229.2,22.6,238.3,26.1
			C247.4,22.6,358-19,460.6,10.5l1.1,0.3v241.1l-2.1-0.7c-0.9-0.3-94.1-31.5-220.7,25.2L238.3,276.7z M84.6,239.2
			c38.6,0,91.6,7.1,153.7,34c66.5-29.6,123.2-34.9,159.2-34.1c32.5,0.7,54.4,6.5,61.1,8.4V13.2C353.3-16.4,240.1,28.8,238.9,29.3
			l-0.6,0.2l-0.6-0.2C236.6,28.8,123.3-16.4,18,13.2v234.3C25,245.4,48.5,239.2,84.6,239.2z"/>
	</g>
	<g>
		<path d="M48.6,83l2.6-2.7c0.6,0.2,1.5,0.5,2.6,0.6c0.9-0.6,1.5-1.3,1.9-2.1c0.3-0.9,0.6-2.5,0.9-5.1l1.5-13.8
			c-5.6,0.7-8.4,2.7-8.4,6.1c0,1,0.3,2.1,0.8,3.2l-3,2.8c-0.3-0.6-0.4-1.5-0.4-2.7c0-3.7,1.4-6.5,4.3-8.5s7-2.9,12.5-2.9
			c9,0,13.4,3.1,13.4,9.3c0,3.7-1.3,7.2-3.8,10.3c-3.3,4.2-8.4,6.2-15.3,6.2C55.4,83.7,52.2,83.5,48.6,83z M61.1,59.5l-1.5,13.9
			l-0.2,1.7c-0.2,1.6-0.5,2.8-1,3.5c-0.5,0.7-1.5,1.5-3,2.4c2.7,0.4,5.2,0.6,7.6,0.6c2.2,0,3.9-0.3,5.1-0.9c1.2-0.6,2.4-1.8,3.5-3.5
			c1.6-2.4,2.4-5,2.4-8c0-6.5-4.1-9.8-12.2-9.8H61.1z"/>
		<path d="M84.9,73.6c2.7-5.2,5.4-7.8,8.1-7.8c0.7,0,1.4,0.2,2.1,0.5l-2.6,2.8c-0.4-0.2-0.9-0.3-1.5-0.3c-1.3,0-2.6,1-4.1,3.1
			c-1.4,2.1-2.3,4.2-2.5,6.5l-0.5,4.5l-2.8,0.9l0.1-0.6l0.1-1.2l0.1-1.2l1-8.8l0.1-1c0.1-0.7,0.1-1.3,0.1-1.8c0-0.8-0.2-1.1-0.6-1.1
			c-1,0-2,1.1-2.9,3.2c-0.3-0.2-0.5-0.5-0.4-0.7c0-0.8,0.7-1.7,2.1-3c1.3-1.2,2.4-1.9,3.2-1.9c1,0,1.6,0.7,1.6,2.1
			c0,0.3,0,0.8-0.1,1.4l-0.1,1.3L85,72L84.9,73.6z"/>
		<path d="M105.5,76.1c-1.4,2.3-2.9,4.2-4.6,5.6c-1.7,1.5-3.1,2.2-4.4,2.2c-1.7,0-2.5-1.4-2.5-4.1c0-3.8,1.2-7,3.7-9.7
			c2.5-2.7,5.4-4.1,8.7-4.1c1.3,0,2.4,0.2,3.3,0.5c-0.1,0.2-0.1,0.4-0.1,0.4l-0.2,1c-0.1,0.7-0.2,1.1-0.2,1.2l-1.2,8.2l-0.2,1.2
			c-0.2,1.2-0.2,2-0.2,2.3c0,0.5,0.2,0.8,0.5,0.8c1,0,2.1-1.2,3.2-3.5c0.3,0.2,0.5,0.4,0.5,0.6c0,0.4-0.5,1.3-1.6,2.6
			c-1.4,1.8-2.8,2.7-4,2.7c-0.9,0-1.4-0.6-1.4-1.8c0-0.4,0-0.9,0.1-1.5l0.2-1.5l0.2-1.6L105.5,76.1z M106.6,68.8
			c-1.1-0.6-2.3-0.9-3.4-0.9c-1.7,0-3.2,1.1-4.4,3.2c-1.2,2.1-1.8,4.7-1.8,7.8c0,1.6,0.5,2.4,1.4,2.4c1.1,0,2.4-0.8,4-2.5
			c2.1-2.3,3.4-4.9,3.8-7.9L106.6,68.8z"/>
		<path d="M128.9,66.5c-0.1,0.2-0.1,0.4-0.1,0.4l-0.2,1c-0.2,0.7-0.2,1.1-0.3,1.2l-0.7,6.8c-0.1,1.1-0.3,3.1-0.4,6
			c-0.2,3.6-0.5,6.2-1,7.9s-1.4,3.2-2.7,4.6c-2.9,3.1-6.1,4.6-9.4,4.6c-1.6,0-2.9-0.5-4-1.6s-1.6-2.4-1.6-4.1c0-3.3,2-6.6,6.1-9.8
			c-0.9-0.7-1.3-1.9-1.3-3.6c0-3.7,1.2-7,3.7-9.7c2.5-2.8,5.4-4.1,8.7-4.1C127.1,66,128.1,66.2,128.9,66.5z M124.9,76.2
			c-3.3,5.1-6.3,7.6-9,7.6c-0.1,0-0.3,0-0.6,0c-2.9,2.9-4.3,5.5-4.3,7.7c0,1.5,0.5,2.8,1.6,3.9c1.1,1,2.4,1.6,4.1,1.6
			c2.5,0,4.4-1.1,5.7-3.3c1-1.7,1.7-5.7,2.1-12.1C124.6,79.2,124.7,77.4,124.9,76.2z M125.7,68.8c-0.9-0.6-2-0.9-3.4-0.9
			c-1.7,0-3.1,1.1-4.3,3.2s-1.7,4.7-1.7,7.8c0,1.6,0.5,2.4,1.4,2.4c1.1,0,2.4-0.8,4-2.5c2.2-2.3,3.4-5,3.7-7.9L125.7,68.8z"/>
		<path d="M135.3,84c-2.8,0-4.2-1.8-4.2-5.5c0-3,1.1-5.8,3.3-8.6s4.4-4.1,6.8-4.1c2.8,0,4.2,1.8,4.2,5.5c0,3-1.1,5.8-3.3,8.6
			C139.9,82.6,137.6,84,135.3,84z M137.5,81.9c1.4,0,2.6-0.8,3.6-2.4c1-1.6,1.4-3.5,1.4-5.9c0-3.8-1.2-5.8-3.6-5.8
			c-1.4,0-2.6,0.8-3.5,2.4c-1,1.6-1.4,3.6-1.4,5.9C133.9,80,135.1,81.9,137.5,81.9z"/>
		<path d="M152.4,82.8l-2.8,1.1l0.1-0.5l0.1-1.4l0.1-1.3l1-8.6l0.1-1c0.1-0.8,0.1-1.4,0.1-1.9c0-0.8-0.2-1.2-0.6-1.2
			c-0.9,0-1.9,1-3,3.1c-0.3-0.2-0.4-0.4-0.4-0.6c0-0.7,0.7-1.7,2-3c1.4-1.3,2.4-1.9,3.2-1.9c1.1,0,1.6,0.7,1.6,2
			c0,0.3,0,0.8-0.1,1.4l-0.1,1.5l-0.2,1.3l-0.2,1.3c1.5-2.2,3.1-4,4.8-5.4c1.7-1.4,3.2-2.1,4.4-2.1c1.2,0,1.8,0.8,1.8,2.5
			c0,0.5-0.1,1.3-0.2,2.3l-1,6.9c-0.2,1.4-0.3,2.5-0.3,3.3c0,0.6,0.2,1,0.5,1c0.9,0,1.9-1.1,3.2-3.4c0.3,0.2,0.4,0.4,0.4,0.6
			c0,0.8-0.7,1.9-2.1,3.2c-1.4,1.3-2.5,2-3.4,2c-1,0-1.4-0.7-1.4-2.1c0-1,0.1-2.4,0.4-4.2l0.7-4.5c0.2-1.5,0.3-2.6,0.3-3.5
			c0-1-0.3-1.5-1-1.5c-1.6,0-3.2,1.1-4.8,3.2c-1.6,2.1-2.6,4.4-2.8,6.9L152.4,82.8z"/>
		<path d="M174.6,68.4l-0.9,8.2c-0.2,1.5-0.2,2.6-0.2,3.3c0,1.4,0.5,2.1,1.4,2.1c1,0,2.1-0.8,3.2-2.5c0.2,0.2,0.3,0.4,0.3,0.6
			c0,0.7-0.6,1.5-1.8,2.5c-1.2,1-2.3,1.4-3.1,1.4c-1.8,0-2.6-1.1-2.6-3.4c0-0.8,0.1-2.2,0.3-4l0.9-8.2h-3.9l2.2-2.1h2l0.4-3.4
			l2.7-0.9l-0.4,4.3h7.8l-2.2,2.1H174.6z"/>
		<path d="M186,84c-2.8,0-4.2-1.8-4.2-5.5c0-3,1.1-5.8,3.3-8.6s4.4-4.1,6.8-4.1c2.8,0,4.2,1.8,4.2,5.5c0,3-1.1,5.8-3.3,8.6
			C190.7,82.6,188.4,84,186,84z M188.3,81.9c1.4,0,2.6-0.8,3.6-2.4c1-1.6,1.4-3.5,1.4-5.9c0-3.8-1.2-5.8-3.6-5.8
			c-1.4,0-2.6,0.8-3.5,2.4c-1,1.6-1.4,3.6-1.4,5.9C184.7,80,185.9,81.9,188.3,81.9z"/>
		<path d="M202.3,83.9c0-2.9-0.2-5.6-0.6-8.2l-0.6-3.9c-0.3-2.2-0.9-3.4-1.8-3.4c-0.9-0.1-1.6,0.9-2,2.8c-0.4-0.1-0.6-0.4-0.6-0.7
			c0-0.9,0.4-1.9,1.3-3s1.7-1.6,2.4-1.6c1.1,0,1.9,0.9,2.6,2.7c0.6,1.8,1.2,4.9,1.6,9.2l0.1,1.1c2.2-4,3.8-7.6,4.9-10.9l2.2-2.1
			c0.1,1.7,0.3,3,0.4,3.9l0.4,3l0.3,2.1l0.8,4.7l0.4-0.7c2.9-4.7,4.3-7.7,4.3-9c0-0.7-0.4-1.3-1.1-1.8l2.2-2.1
			c0.9,0.5,1.4,1.2,1.4,2c0,1-0.7,2.7-2.1,5l-1.1,1.9l-1.4,2.4c-1,1.7-1.7,3.3-2.2,4.6L212,84c-0.2-2.2-0.5-4.6-0.9-7l-0.3-1.7
			l-0.8-4.3l-0.9,1.6c-1.6,2.9-2.9,5.8-4,8.9L202.3,83.9z"/>
		<path d="M227,82.8l-2.8,1.1l0.1-0.5l0.1-1.4l0.1-1.3l1-8.6l0.1-1c0.1-0.8,0.1-1.4,0.1-1.9c0-0.8-0.2-1.2-0.6-1.2
			c-0.9,0-1.9,1-3,3.1c-0.3-0.2-0.4-0.4-0.4-0.6c0-0.7,0.7-1.7,2-3c1.4-1.3,2.4-1.9,3.2-1.9c1.1,0,1.6,0.7,1.6,2
			c0,0.3,0,0.8-0.1,1.4l-0.1,1.5l-0.2,1.3l-0.2,1.3c1.5-2.2,3.1-4,4.8-5.4c1.7-1.4,3.2-2.1,4.4-2.1c1.2,0,1.8,0.8,1.8,2.5
			c0,0.5-0.1,1.3-0.2,2.3l-1,6.9c-0.2,1.4-0.3,2.5-0.3,3.3c0,0.6,0.2,1,0.5,1c0.9,0,1.9-1.1,3.2-3.4c0.3,0.2,0.4,0.4,0.4,0.6
			c0,0.8-0.7,1.9-2.1,3.2c-1.4,1.3-2.5,2-3.4,2c-1,0-1.4-0.7-1.4-2.1c0-1,0.1-2.4,0.4-4.2l0.7-4.5c0.2-1.5,0.3-2.6,0.3-3.5
			c0-1-0.3-1.5-1-1.5c-1.6,0-3.2,1.1-4.8,3.2c-1.6,2.1-2.6,4.4-2.8,6.9L227,82.8z"/>
		<path d="M259.3,82l1.7-15.4c-1.2,0.9-2.2,1.5-3,1.9l-2,1.1c0,0-0.2,0.1-0.4,0.3l0.2-1.8c2.4-0.9,5.2-2.4,8.1-4.5l-2,18.3h4.6
			l-1.8,1.4h-10.7l1.8-1.4H259.3z"/>
		<path d="M269,83l2.6-2.1c1,1,2.2,1.5,3.6,1.5c1.8,0,2.7-0.9,2.7-2.6c0-0.9-0.8-2.3-2.5-4l-1.1-1.1c-1.5-1.6-2.3-2.9-2.3-3.9
			c0-1.4,0.6-2.6,1.9-3.6c1.2-1,2.8-1.5,4.6-1.5c1,0,2.1,0.2,3.2,0.6l-2.2,2.1c-0.9-0.7-2-1.1-3.1-1.1c-1.3,0-2,0.6-2,1.7
			c0,0.8,0.7,2,2.2,3.5l1.1,1.2c1.7,1.8,2.6,3.2,2.6,4.3c0,1.6-0.7,2.9-2.2,4.1c-1.5,1.2-3.2,1.8-5.2,1.8
			C271.5,84,270.3,83.6,269,83z"/>
		<path d="M289.5,68.4l-0.9,8.2c-0.2,1.5-0.2,2.6-0.2,3.3c0,1.4,0.5,2.1,1.4,2.1c1,0,2.1-0.8,3.2-2.5c0.2,0.2,0.3,0.4,0.3,0.6
			c0,0.7-0.6,1.5-1.8,2.5c-1.2,1-2.3,1.4-3.1,1.4c-1.8,0-2.6-1.1-2.6-3.4c0-0.8,0.1-2.2,0.3-4l0.9-8.2h-3.9l2.2-2.1h2l0.4-3.4
			l2.7-0.9l-0.4,4.3h7.8l-2.2,2.1H289.5z"/>
		<path d="M311.6,69.2l-2.9,2.8c-0.5-1.3-0.8-2.6-0.8-3.8c0-3.1,1.3-5.5,4-7.4c2.2-1.6,6-2.4,11.4-2.4c0.9,0,1.7,0,2.4,0.1
			c1.9,0.1,2.9,0.2,2.9,0.2h1.3c-1,1.5-1.4,4.5-1.4,9.1l0,1l0.1,2.1c0,2.6,0.3,5.2,0.9,7.8c0.2,1,0.5,1.7,0.7,2
			c0.2,0.3,0.6,0.4,1.2,0.4c0.6,0,1.3-0.2,2.1-0.6c0.1,0.2,0.1,0.4,0.1,0.5c0,0.3-0.2,0.6-0.7,0.8l-0.9,0.4l-4.6,2
			c-1-3.1-1.6-6.4-1.8-9.8l-1.4,1h-6.2c-1.1,2.9-2.7,4.9-4.7,6.2l3.8,0.2l-2,2.1l-7.4-0.3l2.5-2.2l1.9,0.1c0.8-0.6,1.6-1.5,2.1-2.6
			c0.6-1.1,1.5-3.3,2.6-6.5l0.6-1.5c1.1-3.1,2.2-5.3,3.2-6.8c1-1.4,2.4-2.6,4.2-3.5c-1.9-0.4-4-0.5-6.1-0.5c-5.5,0-8.2,1.8-8.2,5.5
			C310.7,66.9,311,68.1,311.6,69.2z M325.7,73.4c-0.2-2.1-0.3-3.9-0.3-5.2c0-0.7,0-1.2,0-1.7l0.1-2.1c0.1-1.5,0.2-2.6,0.4-3.4
			c-2.4,1.5-4.4,4.5-6,9.1c-0.4,1.3-0.7,2.1-0.8,2.3l-0.4,1.1H325.7z"/>
		<path d="M339.8,82.8l-2.8,1.1l0.1-0.5l0.1-1.4l0.1-1.3l1-8.6l0.1-1c0.1-0.8,0.1-1.4,0.1-1.9c0-0.8-0.2-1.2-0.6-1.2
			c-0.9,0-1.9,1-3,3.1c-0.3-0.2-0.4-0.4-0.4-0.6c0-0.7,0.7-1.7,2-3c1.4-1.3,2.4-1.9,3.2-1.9c1.1,0,1.6,0.7,1.6,2
			c0,0.3,0,0.8-0.1,1.4l-0.1,1.5l-0.2,1.3l-0.2,1.3c1.5-2.2,3.1-4,4.8-5.4s3.2-2.1,4.4-2.1c1.2,0,1.8,0.8,1.8,2.5
			c0,0.5-0.1,1.3-0.2,2.3l-1,6.9c-0.2,1.4-0.3,2.5-0.3,3.3c0,0.6,0.2,1,0.5,1c0.9,0,1.9-1.1,3.2-3.4c0.3,0.2,0.4,0.4,0.4,0.6
			c0,0.8-0.7,1.9-2.1,3.2c-1.4,1.3-2.5,2-3.4,2c-1,0-1.4-0.7-1.4-2.1c0-1,0.1-2.4,0.4-4.2l0.7-4.5c0.2-1.5,0.3-2.6,0.3-3.5
			c0-1-0.3-1.5-1-1.5c-1.6,0-3.2,1.1-4.8,3.2c-1.6,2.1-2.6,4.4-2.8,6.9L339.8,82.8z"/>
		<path d="M361.2,82.8l-2.8,1.1l0.1-0.5l0.1-1.4l0.1-1.3l1-8.6l0.1-1c0.1-0.8,0.1-1.4,0.1-1.9c0-0.8-0.2-1.2-0.6-1.2
			c-0.9,0-1.9,1-3,3.1c-0.3-0.2-0.4-0.4-0.4-0.6c0-0.7,0.7-1.7,2-3c1.4-1.3,2.4-1.9,3.2-1.9c1.1,0,1.6,0.7,1.6,2
			c0,0.3,0,0.8-0.1,1.4l-0.1,1.5l-0.2,1.3l-0.2,1.3c1.5-2.2,3.1-4,4.8-5.4c1.7-1.4,3.2-2.1,4.4-2.1c1.2,0,1.8,0.8,1.8,2.5
			c0,0.5-0.1,1.3-0.2,2.3l-1,6.9c-0.2,1.4-0.3,2.5-0.3,3.3c0,0.6,0.2,1,0.5,1c0.9,0,1.9-1.1,3.2-3.4c0.3,0.2,0.4,0.4,0.4,0.6
			c0,0.8-0.7,1.9-2.1,3.2c-1.4,1.3-2.5,2-3.4,2c-1,0-1.4-0.7-1.4-2.1c0-1,0.1-2.4,0.4-4.2l0.7-4.5c0.2-1.5,0.3-2.6,0.3-3.5
			c0-1-0.3-1.5-1-1.5c-1.6,0-3.2,1.1-4.8,3.2c-1.6,2.1-2.6,4.4-2.8,6.9L361.2,82.8z"/>
		<path d="M391,76.2c-1.4,2.2-3,4-4.8,5.5c-1.8,1.5-3.2,2.3-4.3,2.3c-1.2,0-1.8-0.8-1.8-2.4c0-0.6,0.1-1.6,0.2-3l0.7-6.1
			c0-0.1,0-0.4,0.1-1.1l0.1-1.2c0-0.4,0.1-0.7,0.1-1c0-0.7-0.2-1.1-0.6-1.1c-0.9,0-1.9,1-3,3.1c-0.2-0.2-0.4-0.4-0.4-0.6
			c0-0.8,0.7-1.8,2-3.1c1.4-1.3,2.4-1.9,3.3-1.9c1,0,1.5,0.7,1.5,2.1c0,0.3,0,0.7-0.1,1.2l-0.2,1.4l-0.2,1.6l-0.6,5.3
			c-0.1,0.9-0.1,1.8-0.1,2.7c0,0.9,0.3,1.3,0.9,1.3c1.4,0,3-1.1,4.7-3.4c1.8-2.3,2.8-4.6,3.1-6.8l0.6-4.4l3-1
			c-0.3,1.4-0.6,2.7-0.8,3.8l-1.1,7.7c-0.1,0.5-0.1,0.9-0.1,1.2l-0.1,1c-0.1,0.6-0.1,1.1-0.1,1.3c0,0.5,0.1,0.8,0.4,0.8
			c1,0,2.1-1.2,3.2-3.5c0.3,0.2,0.5,0.4,0.5,0.6c0,0.4-0.5,1.3-1.6,2.6c-1.4,1.8-2.8,2.7-4,2.7c-0.9,0-1.4-0.6-1.4-1.8
			c0-0.4,0-0.9,0.1-1.5l0.2-1.5c0.1-0.8,0.2-1.3,0.2-1.6L391,76.2z"/>
		<path d="M410.3,76.1c-1.4,2.3-2.9,4.2-4.6,5.6c-1.7,1.5-3.1,2.2-4.4,2.2c-1.7,0-2.5-1.4-2.5-4.1c0-3.8,1.2-7,3.7-9.7
			s5.4-4.1,8.7-4.1c1.3,0,2.4,0.2,3.3,0.5c-0.1,0.2-0.1,0.4-0.1,0.4l-0.2,1c-0.1,0.7-0.2,1.1-0.2,1.2l-1.2,8.2l-0.2,1.2
			c-0.2,1.2-0.2,2-0.2,2.3c0,0.5,0.2,0.8,0.5,0.8c1,0,2.1-1.2,3.2-3.5c0.3,0.2,0.5,0.4,0.5,0.6c0,0.4-0.5,1.3-1.6,2.6
			c-1.4,1.8-2.8,2.7-4,2.7c-0.9,0-1.4-0.6-1.4-1.8c0-0.4,0-0.9,0.1-1.5l0.2-1.5l0.2-1.6L410.3,76.1z M411.4,68.8
			c-1.1-0.6-2.3-0.9-3.4-0.9c-1.7,0-3.2,1.1-4.4,3.2c-1.2,2.1-1.8,4.7-1.8,7.8c0,1.6,0.5,2.4,1.4,2.4c1.1,0,2.4-0.8,4-2.5
			c2.1-2.3,3.4-4.9,3.8-7.9L411.4,68.8z"/>
		<path d="M425.8,78c0.4,0.2,0.5,0.4,0.5,0.7c0,0.9-0.7,2-2,3.3c-1.3,1.3-2.4,2-3.3,2c-1,0-1.5-0.7-1.5-2.2c0-0.9,0.1-1.8,0.2-2.8
			l0.2-1.6l1.4-12.9c0.4-3.9,1.8-7.2,4-9.8s4.8-3.9,7.8-3.9c0.7,0,1.3,0.1,1.8,0.2l-2.6,2.7c-0.6-0.2-1.3-0.3-2-0.3
			c-1.9,0-3.2,0.7-4.2,2c-0.9,1.3-1.5,3.5-1.9,6.6l-1.7,15.5c-0.1,1.2-0.2,2.1-0.2,2.6c0,1.1,0.2,1.7,0.6,1.7c0.5,0,1-0.4,1.6-1.1
			C425.1,79.7,425.5,78.9,425.8,78z"/>
	</g>
	<g>
		<path d="M81.7,145.5v8.8h-25v10.1h22.9v8.1H56.7v11.6h25.5v8.8H46.3v-47.4H81.7z"/>
		<path d="M109.7,145.5c3.1,0,5.9,0.5,8.5,1.5c2.6,1,4.9,2.4,6.8,4.4c1.9,1.9,3.4,4.4,4.5,7.3c1.1,2.9,1.6,6.3,1.6,10.3
			c0,3.4-0.4,6.6-1.3,9.6c-0.9,2.9-2.2,5.4-4,7.6c-1.8,2.1-4,3.8-6.7,5c-2.7,1.2-5.8,1.8-9.5,1.8H89.3v-47.4H109.7z M109,184.1
			c1.5,0,3-0.2,4.4-0.7c1.4-0.5,2.7-1.3,3.8-2.4c1.1-1.1,2-2.6,2.7-4.4c0.7-1.8,1-4,1-6.6c0-2.4-0.2-4.5-0.7-6.5
			c-0.5-1.9-1.2-3.6-2.3-4.9c-1.1-1.4-2.5-2.4-4.2-3.2c-1.7-0.7-3.9-1.1-6.5-1.1h-7.4v29.8H109z"/>
		<path d="M173.2,189.2c-3.6,3.1-8.5,4.7-14.9,4.7c-6.4,0-11.4-1.5-14.9-4.6c-3.5-3.1-5.3-7.9-5.3-14.3v-29.4h10.4v29.4
			c0,1.3,0.1,2.5,0.3,3.8c0.2,1.2,0.7,2.3,1.4,3.3c0.7,1,1.7,1.7,3,2.3c1.3,0.6,3,0.9,5.1,0.9c3.7,0,6.3-0.8,7.7-2.5
			c1.4-1.7,2.1-4.3,2.1-7.8v-29.4h10.4v29.4C178.6,181.3,176.8,186.1,173.2,189.2z"/>
		<path d="M217.9,158.1c-0.6-1-1.4-1.9-2.3-2.6c-0.9-0.8-2-1.3-3.2-1.8c-1.2-0.4-2.4-0.6-3.7-0.6c-2.3,0-4.3,0.5-6,1.4
			c-1.6,0.9-3,2.1-4,3.6c-1,1.5-1.8,3.3-2.2,5.2c-0.5,1.9-0.7,4-0.7,6c0,2,0.2,3.9,0.7,5.8c0.5,1.9,1.2,3.6,2.2,5.1
			c1,1.5,2.3,2.7,4,3.6c1.6,0.9,3.6,1.4,6,1.4c3.2,0,5.7-1,7.5-2.9c1.8-1.9,2.9-4.5,3.3-7.7h10.1c-0.3,3-1,5.6-2.1,8
			c-1.1,2.4-2.6,4.4-4.4,6.1c-1.8,1.7-3.9,3-6.4,3.8c-2.4,0.9-5.1,1.3-8,1.3c-3.6,0-6.9-0.6-9.8-1.9c-2.9-1.3-5.3-3-7.3-5.2
			c-2-2.2-3.5-4.8-4.6-7.8c-1.1-3-1.6-6.2-1.6-9.7c0-3.5,0.5-6.8,1.6-9.8c1.1-3,2.6-5.7,4.6-7.9c2-2.3,4.4-4,7.3-5.3
			c2.9-1.3,6.2-1.9,9.8-1.9c2.6,0,5.1,0.4,7.4,1.1c2.3,0.8,4.4,1.8,6.2,3.3c1.8,1.4,3.3,3.2,4.5,5.3c1.2,2.1,1.9,4.6,2.3,7.3h-10.1
			C219,160.2,218.6,159.1,217.9,158.1z"/>
		<path d="M260.3,145.5l17.7,47.4h-10.8l-3.6-10.5h-17.7l-3.7,10.5h-10.5l17.9-47.4H260.3z M260.9,174.5l-6-17.4h-0.1l-6.2,17.4
			H260.9z"/>
		<path d="M272.3,154.2v-8.8h38.8v8.8h-14.2v38.6h-10.4v-38.6H272.3z"/>
		<path d="M327,145.5v47.4h-10.4v-47.4H327z"/>
		<path d="M335.7,159.5c1.1-3,2.6-5.7,4.6-7.9c2-2.3,4.4-4,7.3-5.3c2.9-1.3,6.2-1.9,9.8-1.9c3.7,0,6.9,0.6,9.8,1.9
			c2.9,1.3,5.3,3.1,7.3,5.3c2,2.3,3.5,4.9,4.6,7.9c1.1,3,1.6,6.3,1.6,9.8c0,3.4-0.5,6.7-1.6,9.7c-1.1,3-2.6,5.6-4.6,7.8
			c-2,2.2-4.4,3.9-7.3,5.2c-2.9,1.3-6.1,1.9-9.8,1.9c-3.6,0-6.9-0.6-9.8-1.9c-2.9-1.3-5.3-3-7.3-5.2c-2-2.2-3.5-4.8-4.6-7.8
			c-1.1-3-1.6-6.2-1.6-9.7C334.1,165.8,334.6,162.5,335.7,159.5z M345.2,175.2c0.5,1.9,1.2,3.6,2.2,5.1c1,1.5,2.3,2.7,4,3.6
			c1.6,0.9,3.6,1.4,6,1.4c2.3,0,4.3-0.5,6-1.4c1.6-0.9,3-2.1,4-3.6c1-1.5,1.8-3.2,2.2-5.1c0.5-1.9,0.7-3.8,0.7-5.8
			c0-2.1-0.2-4.1-0.7-6c-0.5-1.9-1.2-3.7-2.2-5.2c-1-1.5-2.3-2.7-4-3.6c-1.6-0.9-3.6-1.4-6-1.4c-2.3,0-4.3,0.5-6,1.4
			c-1.6,0.9-3,2.1-4,3.6c-1,1.5-1.8,3.3-2.2,5.2c-0.5,1.9-0.7,4-0.7,6C344.5,171.3,344.7,173.3,345.2,175.2z"/>
		<path d="M398.1,145.5l19.8,31.8h0.1v-31.8h9.7v47.4h-10.4l-19.7-31.7h-0.1v31.7h-9.7v-47.4H398.1z"/>
	</g>
	<path d="M65,108.1v2.2H50.4v9.8h13v2.2h-13v12.9h-2.6v-27.1H65z"/>
	<path d="M105.2,108.1v2.2H89.1v9.8h15.1v2.2H89.1V133h16.3v2.2H86.5v-27.1H105.2z"/>
	<path d="M129.2,129.8c0.5,0.9,1.1,1.7,1.9,2.2c0.8,0.6,1.7,1,2.8,1.2c1.1,0.2,2.2,0.4,3.5,0.4c0.7,0,1.5-0.1,2.3-0.3s1.6-0.5,2.3-1
		c0.7-0.4,1.3-1,1.8-1.7c0.5-0.7,0.7-1.5,0.7-2.5c0-0.8-0.2-1.4-0.5-2c-0.3-0.6-0.8-1-1.3-1.4c-0.5-0.4-1.1-0.7-1.8-0.9
		c-0.7-0.2-1.3-0.4-1.9-0.6l-6-1.5c-0.8-0.2-1.5-0.5-2.3-0.8c-0.7-0.3-1.4-0.7-2-1.2s-1-1.1-1.3-1.9c-0.3-0.7-0.5-1.6-0.5-2.7
		c0-0.7,0.1-1.4,0.4-2.3c0.3-0.9,0.7-1.7,1.4-2.5c0.7-0.8,1.6-1.4,2.9-2c1.2-0.5,2.8-0.8,4.7-0.8c1.3,0,2.6,0.2,3.8,0.5
		c1.2,0.4,2.3,0.9,3.2,1.6c0.9,0.7,1.6,1.6,2.2,2.6c0.5,1,0.8,2.3,0.8,3.7h-2.6c-0.1-1-0.3-1.9-0.7-2.7c-0.4-0.8-1-1.4-1.6-1.9
		c-0.7-0.5-1.4-0.9-2.3-1.2c-0.9-0.3-1.8-0.4-2.7-0.4c-0.9,0-1.7,0.1-2.6,0.3c-0.8,0.2-1.5,0.5-2.2,0.9c-0.6,0.4-1.1,1-1.5,1.6
		c-0.4,0.7-0.6,1.5-0.6,2.5c0,0.6,0.1,1.2,0.3,1.6c0.2,0.5,0.5,0.9,0.9,1.2c0.4,0.3,0.8,0.6,1.3,0.8s1,0.4,1.6,0.5l6.6,1.6
		c1,0.3,1.9,0.6,2.7,0.9c0.8,0.4,1.6,0.8,2.2,1.4c0.6,0.5,1.1,1.2,1.5,2s0.5,1.7,0.5,2.8c0,0.3,0,0.7-0.1,1.2
		c-0.1,0.5-0.2,1-0.5,1.6c-0.2,0.6-0.6,1.1-1,1.7c-0.4,0.6-1,1.1-1.8,1.6c-0.8,0.5-1.7,0.8-2.9,1.1c-1.1,0.3-2.5,0.4-4.1,0.4
		s-3.1-0.2-4.4-0.5c-1.4-0.4-2.5-0.9-3.5-1.7c-1-0.8-1.7-1.7-2.2-2.9c-0.5-1.2-0.7-2.6-0.7-4.3h2.6
		C128.5,127.7,128.8,128.8,129.2,129.8z"/>
	<path d="M188.1,108.1v2.2h-9.4v24.9h-2.6v-24.9h-9.4v-2.2H188.1z"/>
	<path d="M211.7,108.1v27.1h-2.6v-27.1H211.7z"/>
	<path d="M235.5,108.1l8.8,24.2h0.1l8.7-24.2h2.7l-10,27.1h-3l-10-27.1H235.5z"/>
	<path d="M285.2,108.1l10.6,27.1h-2.8l-3.3-8.4h-12.3l-3.3,8.4h-2.7l10.9-27.1H285.2z M288.9,124.6l-5.2-13.9l-5.4,13.9H288.9z"/>
	<path d="M319.2,108.1V133h15.2v2.2h-17.7v-27.1H319.2z"/>
	<path d="M366.7,116.3c0.5-1.7,1.3-3.2,2.4-4.5s2.4-2.3,4-3.1c1.6-0.8,3.5-1.2,5.6-1.2c2.1,0,4,0.4,5.6,1.2c1.6,0.8,2.9,1.8,4,3.1
		c1.1,1.3,1.9,2.8,2.4,4.5c0.5,1.7,0.8,3.5,0.8,5.3c0,1.9-0.3,3.7-0.8,5.3c-0.5,1.7-1.3,3.2-2.4,4.5c-1.1,1.3-2.4,2.3-4,3.1
		c-1.6,0.8-3.4,1.2-5.6,1.2c-2.1,0-4-0.4-5.6-1.2c-1.6-0.8-2.9-1.8-4-3.1c-1.1-1.3-1.9-2.8-2.4-4.5c-0.5-1.7-0.8-3.5-0.8-5.3
		C365.9,119.8,366.1,118,366.7,116.3z M369,126c0.4,1.4,1,2.7,1.8,3.8c0.8,1.1,1.9,2,3.2,2.7c1.3,0.7,2.8,1,4.6,1s3.3-0.3,4.6-1
		c1.3-0.7,2.3-1.6,3.1-2.7c0.8-1.1,1.4-2.4,1.8-3.8c0.4-1.4,0.6-2.9,0.6-4.3c0-1.5-0.2-2.9-0.6-4.4c-0.4-1.4-1-2.7-1.8-3.8
		c-0.8-1.1-1.9-2-3.1-2.7c-1.3-0.7-2.8-1-4.6-1s-3.3,0.3-4.6,1c-1.3,0.7-2.3,1.6-3.2,2.7c-0.8,1.1-1.4,2.4-1.8,3.8
		c-0.4,1.4-0.6,2.9-0.6,4.4C368.5,123.1,368.6,124.6,369,126z"/>
	<path d="M427.9,108.1v2.2h-14.6v9.8h13v2.2h-13v12.9h-2.6v-27.1H427.9z"/>
	<rect x="137.3" y="91.8" width="290.5" height="3.2"/>
	<rect x="46.3" y="207.8" width="381.4" height="3.2"/>
	<rect x="46.3" y="91.8" width="54.6" height="3.2"/>
</g>
</svg>
