<svg id="Layer_1" data-name="Layer 1" xmlns="http://www.w3.org/2000/svg" viewBox="0 0 546.72 546.72"><defs><style>.cls-1{fill:#d9e9ee;stroke:#3288a3;stroke-miterlimit:10;stroke-width:10px;}.cls-2{fill:#3288a3;}</style></defs><title>neighbor.ly logo</title><circle class="cls-1" cx="273.36" cy="273.36" r="268.36"/><path class="cls-2" d="M538.47,311.36q-16,33.51-28.25,58t-21.5,42q-9.25,17.52-15.75,29t-11.5,19a67.35,67.35,0,0,1-11.25,11.5q-5.75,4.5-10.25,4.5a26.19,26.19,0,0,1-20.5-9q-8-9-12.5-24a174.84,174.84,0,0,1-6.25-34.25Q399,388.88,399,368.36a546.32,546.32,0,0,1,2.75-54.75,555.91,555.91,0,0,0,2.75-55.75q0-28.5-3.25-46.5t-14.75-18q-4.5,0-11.75,21T359,266.86q-4.5,15.51-9.75,33.25t-11,36q-5.75,18.27-11.75,36T314,404.86q-5.5,8.52-14.25,10.25a43.63,43.63,0,0,1-15.25.75,21.11,21.11,0,0,1-9.5-4.75,19.93,19.93,0,0,1-5.25-9.25,77.94,77.94,0,0,1-2.5-15.25q-.75-9.24-.75-23.25,0-3-.25-14.25t0-26q.25-14.73,1.25-31.25a301.92,301.92,0,0,1,3.25-30.25,103.59,103.59,0,0,1,6-22.75q3.75-9,9.75-9,12,0,19,2.25t10.25,7.25q3.25,5,4.25,13.75a190.56,190.56,0,0,1,1,21.25l.5,73.5q5.5-17.49,9-29.5t6-20.5q2.5-8.49,4-14.25t3-11.25q11-37.5,18.75-60.5t15-35.75q7.25-12.75,15.75-17t21-4.25q16,0,25.75,7.5A50.85,50.85,0,0,1,455,181.86a89.63,89.63,0,0,1,7.25,27.25A268.83,268.83,0,0,1,464,239.86q0,46.5-3,92t-1.5,95q2,10,16.75-17.75T526,310.86Z" transform="translate(-118.34 -28.95)"/></svg>